<svg id="Logo" xmlns="http://www.w3.org/2000/svg" width="243.449" height="65.159" viewBox="0 0 243.449 65.159">
  <g id="Group_1" data-name="Group 1">
    <path id="Path_1" data-name="Path 1" d="M55.112.338A5.218,5.218,0,0,1,56.023,0l.163.317c.7,1.477,1.68,2.8,2.5,4.211a52.316,52.316,0,0,1,7.295,27.6c.057,3.666-.749,7.258-1.131,10.883l-.187.016a65.842,65.842,0,0,0-8.857-14.394A66.142,66.142,0,0,0,39.42,13.784,67.336,67.336,0,0,1,55.112.338Z" transform="translate(-23.382)" fill="#23aa4a"/>
    <path id="Path_2" data-name="Path 2" d="M25.965,73.436c1.92-.81,3.759-1.928,5.879-2.116a67.318,67.318,0,0,0-8.385,13.91,62.641,62.641,0,0,0-5.643,20.944A69.177,69.177,0,0,1,0,99.864,53.672,53.672,0,0,1,25.965,73.436Z" transform="translate(0 -42.304)" fill="#23aa4a"/>
  </g>
  <path id="Path_3" data-name="Path 3" d="M80.63.78a67.723,67.723,0,0,1,28.959,36.941A65.518,65.518,0,0,1,89.3,43.474c.382-3.625,1.188-7.217,1.131-10.883a52.316,52.316,0,0,0-7.295-27.6c-.822-1.412-1.8-2.734-2.5-4.211Z" transform="translate(-47.827 -0.463)" fill="#60bb46"/>
  <path id="Path_4" data-name="Path 4" d="M181.442,30.492c4.378-2.771,9.874-3.157,14.862-2.225,4.39.9,7.592,4.276,10.562,7.38-2.315,2.254-4.528,4.6-6.835,6.859-1.9-2.384-4.227-4.744-7.295-5.48-2.038-.281-4.435-.362-6.05,1.139-1.155,1-2.164,2.612-1.505,4.17a8.922,8.922,0,0,0,2.632,2.559c5.008,3.377,10.7,5.915,14.846,10.427a10.778,10.778,0,0,1,3.145,7.937,13.555,13.555,0,0,1-6.3,10.541,15.9,15.9,0,0,1-8.861,2.278,18.647,18.647,0,0,1-10.281-2.535,37.346,37.346,0,0,1-6.444-5.232c1.937-2.323,4.207-4.361,6.249-6.595l.26-.037c3.137,2.136,6.363,4.508,10.224,5.045a5.1,5.1,0,0,0,5.4-2.783,2.248,2.248,0,0,0-.48-2.315c-1.928-2.632-4.858-4.223-7.535-5.976-3.145-2.1-6.676-3.743-9.207-6.636a11.625,11.625,0,0,1-3.043-10.944,13.128,13.128,0,0,1,5.651-7.579Zm25.785,10.464c3.023.008,6.042,0,9.064,0,.02.232.057.7.077.924A14.221,14.221,0,0,1,231.3,44.821a13.66,13.66,0,0,1,10.582-3.845,14.372,14.372,0,0,1,11.729,7.311,15.234,15.234,0,0,1,1.8,7.23c.02,6.843-.028,13.69.024,20.537-3.047.053-6.1.012-9.15.02,0-6.99.02-13.979-.008-20.969a5.22,5.22,0,0,0-3.291-4.691c-3.137-1.44-7.323,1.2-7.116,4.707,0,6.981-.024,13.959.012,20.936-3.055.041-6.107.02-9.162.012.033-6.977.012-13.955.012-20.932a5.17,5.17,0,0,0-3.592-4.85c-3.12-1.155-6.961,1.477-6.823,4.833,0,6.985-.012,13.967.008,20.948-3.051.008-6.107.028-9.158-.012.073-11.7-.033-23.4.053-35.1Z" transform="translate(-103.162 -16.497)" fill="#fff"/>
  <path id="Path_5" data-name="Path 5" d="M541.047,28.561c3.047-.041,6.1-.028,9.146-.008-.02,4.333,0,8.662-.012,12.994,3.828-.028,7.661-.02,11.493-.008a12.053,12.053,0,0,1-4.349,6.562,13.475,13.475,0,0,1-7.128,2.445c-.012,3.7-.037,7.409,0,11.111,0,1.664.415,3.54,1.941,4.471,2.307,1.351,5.1,1.347,7.7,1.326.175,2.994-.2,6,0,9.007-4.341.142-8.959-.069-12.8-2.323-3.234-1.928-5.012-5.57-5.553-9.191-.728-4.744-.346-9.561-.407-14.337-1.518-.045-3.035-.045-4.548.012-.094-3.031,0-6.062-.049-9.093q2.295,0,4.593,0c-.049-4.325.016-8.649-.037-12.974Z" transform="translate(-318.225 -16.925)" fill="#fff"/>
  <path id="Path_6" data-name="Path 6" d="M3.387,56.728A68.074,68.074,0,0,1,16.316,33.88,66.142,66.142,0,0,1,32.7,48.73a11.8,11.8,0,0,1-2.177-.094l.228.488a36.684,36.684,0,0,0-7.051,2.49A54.679,54.679,0,0,0,2.638,67.644C1.9,68.567,1.267,69.572.47,70.451A75.939,75.939,0,0,1,3.387,56.728Z" transform="translate(-0.279 -20.096)" fill="#8cc63f"/>
  <path id="Path_7" data-name="Path 7" d="M428.738,67.121a11.615,11.615,0,0,1,12-6.823c.037,2.962-.061,5.924.053,8.881a10.878,10.878,0,0,0-11.265,7.282c-1.078,2.84-.793,5.907-.822,8.873.012,3.308-.024,6.619.024,9.927-3.2.053-6.4.033-9.6.012q.055-17.46,0-34.923c3.015-.061,6.029,0,9.044-.037a71.862,71.862,0,0,1-.159,8A3.037,3.037,0,0,0,428.738,67.121ZM377.965,74.7a17.61,17.61,0,0,1,28.707-10.179c.033-1.391.033-2.779.016-4.17,3.145,0,6.294-.037,9.443.02q-.03,17.441.008,34.882c-3.157.061-6.31.033-9.467.016l.049-3.8a19.907,19.907,0,0,1-8.58,3.845A17.612,17.612,0,0,1,377.965,74.7m15.464-5.378a8.856,8.856,0,0,0-5.708,4.032,8.8,8.8,0,1,0,16.306,4.235c-.028-5.256-5.5-9.459-10.6-8.267Z" transform="translate(-223.996 -35.709)" fill="#fff"/>
  <path id="Path_8" data-name="Path 8" d="M76.519,97.333A65.518,65.518,0,0,0,96.812,91.58,63.672,63.672,0,0,1,99.7,110.628,67.492,67.492,0,0,1,60.5,98.415,13.445,13.445,0,0,1,59.09,97.15a78.312,78.312,0,0,0,17.242.2l.187-.016Z" transform="translate(-35.05 -54.322)" fill="#66bce1"/>
  <path id="Path_9" data-name="Path 9" d="M43.79,125.956a62.641,62.641,0,0,1,5.643-20.944l.334-.342.248.244a13.445,13.445,0,0,0,1.412,1.265,67.492,67.492,0,0,0,39.2,12.213,62.464,62.464,0,0,1-28.056,8.763C56.292,127.355,49.958,127.323,43.79,125.956Z" transform="translate(-25.974 -62.086)" fill="#6c63ff"/>
</svg>
