<svg xmlns="http://www.w3.org/2000/svg" xmlns:xlink="http://www.w3.org/1999/xlink" width="448" height="340" viewBox="0 0 448 340">
  <defs>
    <clipPath id="clip-path">
      <rect id="Rectangle_1720" data-name="Rectangle 1720" width="448" height="340" transform="translate(1702 1269)" fill="#fff" stroke="#707070" stroke-width="1"/>
    </clipPath>
  </defs>
  <g id="Mask_Group_1" data-name="Mask Group 1" transform="translate(-1702 -1269)" opacity="0.1" clip-path="url(#clip-path)">
    <g id="Group_3406" data-name="Group 3406" transform="translate(1644.69 1254.504)" style="mix-blend-mode: normal;isolation: isolate">
      <g id="Group_3405" data-name="Group 3405" transform="translate(0 17.011)">
        <path id="Path_43" data-name="Path 43" d="M229.5,11.05q.89-.34,1.785-.655t1.8-.605q.9-.291,1.809-.559t1.819-.516l.668,1.342a36.9,36.9,0,0,0,2.431,4.612c.924,1.51,1.941,2.992,2.994,4.469s2.154,2.967,3.231,4.467,2.145,3.037,3.132,4.61A149.914,149.914,0,0,1,263.9,59.066a170.018,170.018,0,0,1,8.222,37.018,206.692,206.692,0,0,1,.045,43.354,263.508,263.508,0,0,1-10.08,49.608,189.571,189.571,0,0,1-6.321,20.3c-2.548,6.927-5.452,13.926-8.524,21.005-3.111,7.169-6.394,14.419-9.657,21.765-3.3,7.44-6.589,14.98-9.656,22.638l-1.918.117q-4.123-16.32-9.357-31.375-5.094-14.679-11.189-28.143-5.941-13.139-12.793-25.113-6.686-11.7-14.205-22.274a217.1,217.1,0,0,0-19.645-25.729,228.5,228.5,0,0,0-21.794-21.421,250.2,250.2,0,0,0-23.278-17.74A280.07,280.07,0,0,0,89.538,88.489q16.69-11.163,33.826-21.64Q140.4,56.44,157.895,46.732q17.424-9.661,35.334-18.6Q211.1,19.218,229.5,11.05Z" transform="translate(222.23 0)" fill="#23aa4a"/>
        <path id="Path_44" data-name="Path 44" d="M340.549,15.89c4.475-1.484,8.966-3.1,13.465-4.713s9.016-3.234,13.534-4.726,9.056-2.862,13.6-3.978A103.2,103.2,0,0,1,394.857,0c-9.466,7.546-18.966,15.23-28.4,23.087-9.522,7.927-18.988,16.035-28.3,24.364-9.41,8.412-18.68,17.06-27.715,25.988-9.14,9.032-18.057,18.366-26.658,28.056q-18.439,19.279-35.79,40.161-17.7,21.284-34.409,44.26-17.091,23.486-33.242,48.762-16.568,25.91-32.225,53.719a344.575,344.575,0,0,1-35.158-15.911A319.648,319.648,0,0,1,82.5,254.372a302.653,302.653,0,0,1-26.1-19.686,292.247,292.247,0,0,1-22.13-20.71,904.879,904.879,0,0,1,73.959-66.062,873.317,873.317,0,0,1,75.55-54.044,837.659,837.659,0,0,1,77.328-43.734A790.77,790.77,0,0,1,340.549,15.89Z" transform="translate(0 170.706)" fill="#23aa4a"/>
      </g>
      <path id="Path_45" data-name="Path 45" d="M93.092,27.067A335.353,335.353,0,0,1,156.5,54.3,327.5,327.5,0,0,1,216,96.934a345.6,345.6,0,0,1,53.53,61.313A394.545,394.545,0,0,1,313.16,242.49q-28.847,9.887-58.212,18.046-29.127,8.09-58.323,14.339-28.887,6.179-57.415,10.44-28.158,4.2-55.56,6.448c3.066-7.659,6.351-15.2,9.656-22.638,3.263-7.346,6.546-14.6,9.657-21.765,3.072-7.079,5.976-14.078,8.524-21.005a189.567,189.567,0,0,0,6.321-20.3,263.509,263.509,0,0,0,10.08-49.608,206.7,206.7,0,0,0-.045-43.354,170.015,170.015,0,0,0-8.222-37.018,149.915,149.915,0,0,0-14.74-30.851c-.986-1.573-2.049-3.1-3.131-4.61s-2.172-2.982-3.231-4.467-2.069-2.959-2.994-4.469a36.914,36.914,0,0,1-2.431-4.612Z" transform="translate(366.513 0)" fill="#60bb46"/>
      <path id="Path_46" data-name="Path 46" d="M78.709,148.759Q97.7,128.187,117.643,109.1,137.2,90.36,157.617,72.989q20.088-17.1,40.989-32.922Q219.23,24.449,240.637,10.05a280.073,280.073,0,0,1,24.215,14.588,250.211,250.211,0,0,1,23.278,17.74A228.506,228.506,0,0,1,309.924,63.8a217.1,217.1,0,0,1,19.645,25.729c-1.595.2-3.153.319-4.687.375s-3.037.053-4.53.023-2.966-.089-4.44-.144-2.941-.107-4.421-.125l.7,3.146c-5.428,1.016-10.844,2.244-16.246,3.626s-10.769,2.911-16.138,4.539-10.709,3.346-16.046,5.105-10.645,3.55-15.942,5.323q-28.286,9.635-56.149,21.542-27.8,11.886-55.151,26.073-27.4,14.229-54.333,30.865-27.1,16.764-53.7,36.125c-2.363,1.715-4.706,3.472-7.045,5.248s-4.684,3.575-7.035,5.364-4.724,3.575-7.118,5.324S2.464,245.4,0,247.058q9.732-13.43,19.5-26.434,9.65-12.814,19.453-25.183,9.691-12.2,19.653-23.945,9.857-11.6,20.1-22.737Z" transform="translate(71.131 95.45)" fill="#8cc63f"/>
      <path id="Path_47" data-name="Path 47" d="M210.885,49.655q27.359-2.238,55.56-6.448,28.482-4.25,57.415-10.44,29.148-6.235,58.323-14.339Q411.5,10.285,440.4.381a436.391,436.391,0,0,1,12.8,41.765q5.684,22.417,9.384,46.6,3.8,24.953,5.337,51.711,1.565,27.617.564,57.046a970.216,970.216,0,0,1-139.608-18.3,783.282,783.282,0,0,1-115.221-32.953,582.813,582.813,0,0,1-89.881-42.258,411.168,411.168,0,0,1-66-47.412c-.806-.768-1.558-1.571-2.271-2.4s-1.383-1.678-2.03-2.543S52.2,49.9,51.594,49.02s-1.205-1.756-1.806-2.627c11.8,1.325,23.9,2.5,36.3,3.439,12.579.956,25.461,1.675,38.646,2.079,13.367.409,27.033.494,40.993.172,14.137-.326,28.554-1.068,43.239-2.309l1.919-.117Z" transform="translate(239.278 242.109)" fill="#66bce1"/>
      <path id="Path_48" data-name="Path 48" d="M6.485,190.014Q22.14,162.225,38.71,136.3q16.152-25.259,33.242-48.762,16.709-22.96,34.409-44.26,17.358-20.867,35.79-40.161L146.136.475,147.442,2.4c.6.871,1.2,1.75,1.806,2.627s1.23,1.755,1.876,2.618,1.319,1.716,2.03,2.543,1.465,1.632,2.271,2.4A411.164,411.164,0,0,0,221.43,60a582.8,582.8,0,0,0,89.881,42.258,783.283,783.283,0,0,0,115.221,32.953,970.2,970.2,0,0,0,139.607,18.3,837.439,837.439,0,0,1-95.361,35.534,878.283,878.283,0,0,1-97.325,23.76,854.906,854.906,0,0,1-94.818,12.108,773.72,773.72,0,0,1-88.618,1.269c-17.576-1.553-34.836-3.257-51.673-5.3-16.548-2.012-32.673-4.353-48.26-7.2-15.305-2.8-30.071-6.09-44.179-10.034A324.226,324.226,0,0,1,6.485,190.014Z" transform="translate(141.624 286.099)" fill="#6c63ff"/>
    </g>
  </g>
</svg>
